<mxfile host="app.diagrams.net" modified="2023-07-03T09:39:46.253Z" agent="Mozilla/5.0 (Windows NT 10.0; Win64; x64; rv:109.0) Gecko/20100101 Firefox/114.0" version="21.5.1" etag="fUqLIRM8Kgmjf2pDDW-X" type="github">
  <diagram name="第 1 页" id="AkdyvAcPNmq9f3njSD_J">
    <mxGraphModel>
      <root>
        <mxCell id="0" />
        <mxCell id="1" parent="0" />
      </root>
    </mxGraphModel>
  </diagram>
</mxfile>
